<svg xmlns="http://www.w3.org/2000/svg" xmlns:xlink="http://www.w3.org/1999/xlink" width="500" zoomAndPan="magnify" viewBox="0 0 375 374.999991" height="500" preserveAspectRatio="xMidYMid meet" version="1.0"><defs><g/></defs><g fill="#000000" fill-opacity="1"><g transform="translate(122.053254, 271.254229)"><g><path d="M 6.765625 -157.859375 L 24.8125 -157.859375 L 66.53125 -25.9375 L 109.375 -157.859375 L 125.15625 -157.859375 L 168.015625 -25.9375 L 209.734375 -157.859375 L 227.765625 -157.859375 L 175.90625 0 L 158.984375 0 L 117.265625 -131.921875 L 75.546875 0 L 58.640625 0 Z M 6.765625 -157.859375 "/></g></g></g><g fill="#ffffff" fill-opacity="1"><g transform="translate(27.044476, 271.254229)"><g><path d="M 23.671875 -157.859375 L 40.59375 -157.859375 L 40.59375 -68.78125 L 121.78125 -157.859375 L 143.203125 -157.859375 L 83.4375 -92.46875 L 148.84375 0 L 128.546875 0 L 72.171875 -80.0625 L 40.59375 -46.234375 L 40.59375 0 L 23.671875 0 Z M 23.671875 -157.859375 "/></g></g></g><g fill="#000000" fill-opacity="1"><g transform="translate(9.003082, 271.254229)"><g><path d="M 23.671875 -157.859375 L 40.59375 -157.859375 L 40.59375 -68.78125 L 121.78125 -157.859375 L 143.203125 -157.859375 L 83.4375 -92.46875 L 148.84375 0 L 128.546875 0 L 72.171875 -80.0625 L 40.59375 -46.234375 L 40.59375 0 L 23.671875 0 Z M 23.671875 -157.859375 "/></g></g></g></svg>